<svg width="48" height="48" viewBox="0 0 48 48" fill="none" xmlns="http://www.w3.org/2000/svg">
<path d="M34.5 4.5H13.5C11.8431 4.5 10.5 5.84315 10.5 7.5V40.5C10.5 42.1569 11.8431 43.5 13.5 43.5H34.5C36.1569 43.5 37.5 42.1569 37.5 40.5V7.5C37.5 5.84315 36.1569 4.5 34.5 4.5Z" stroke="#C4C4C4" stroke-linecap="round" stroke-linejoin="round"/>
<path d="M15.001 10.5H33.0001V16.5H15.001V10.5Z" stroke="#C4C4C4" stroke-linecap="round" stroke-linejoin="round"/>
<path d="M15.75 25.5C16.9926 25.5 18 24.4926 18 23.25C18 22.0074 16.9926 21 15.75 21C14.5074 21 13.5 22.0074 13.5 23.25C13.5 24.4926 14.5074 25.5 15.75 25.5Z" fill="#C4C4C4"/>
<path d="M24 25.5C25.2426 25.5 26.25 24.4926 26.25 23.25C26.25 22.0074 25.2426 21 24 21C22.7574 21 21.75 22.0074 21.75 23.25C21.75 24.4926 22.7574 25.5 24 25.5Z" fill="#C4C4C4"/>
<path d="M32.25 25.5C33.4926 25.5 34.5 24.4926 34.5 23.25C34.5 22.0074 33.4926 21 32.25 21C31.0074 21 30 22.0074 30 23.25C30 24.4926 31.0074 25.5 32.25 25.5Z" fill="#C4C4C4"/>
<path d="M15.75 33C16.9926 33 18 31.9926 18 30.75C18 29.5074 16.9926 28.5 15.75 28.5C14.5074 28.5 13.5 29.5074 13.5 30.75C13.5 31.9926 14.5074 33 15.75 33Z" fill="#C4C4C4"/>
<path d="M24 33C25.2426 33 26.25 31.9926 26.25 30.75C26.25 29.5074 25.2426 28.5 24 28.5C22.7574 28.5 21.75 29.5074 21.75 30.75C21.75 31.9926 22.7574 33 24 33Z" fill="#C4C4C4"/>
<path d="M15.75 40.5C16.9926 40.5 18 39.4926 18 38.25C18 37.0074 16.9926 36 15.75 36C14.5074 36 13.5 37.0074 13.5 38.25C13.5 39.4926 14.5074 40.5 15.75 40.5Z" fill="#C4C4C4"/>
<path d="M24 40.5C25.2426 40.5 26.25 39.4926 26.25 38.25C26.25 37.0074 25.2426 36 24 36C22.7574 36 21.75 37.0074 21.75 38.25C21.75 39.4926 22.7574 40.5 24 40.5Z" fill="#C4C4C4"/>
<path d="M34.5 30.75C34.5 29.5074 33.4926 28.5 32.25 28.5C31.0074 28.5 30 29.5074 30 30.75V38.25C30 39.4926 31.0074 40.5 32.25 40.5C33.4926 40.5 34.5 39.4926 34.5 38.25V30.75Z" fill="#C4C4C4"/>
</svg>
