<svg width="48" height="48" viewBox="0 0 48 48" fill="none" xmlns="http://www.w3.org/2000/svg">
<path d="M39 7.5H9C6.51472 7.5 4.5 9.51472 4.5 12V39C4.5 41.4853 6.51472 43.5 9 43.5H39C41.4853 43.5 43.5 41.4853 43.5 39V12C43.5 9.51472 41.4853 7.5 39 7.5Z" stroke="#C4C4C4" stroke-linejoin="round"/>
<path d="M27.75 24C28.9926 24 30 22.9926 30 21.75C30 20.5074 28.9926 19.5 27.75 19.5C26.5074 19.5 25.5 20.5074 25.5 21.75C25.5 22.9926 26.5074 24 27.75 24Z" fill="#C4C4C4"/>
<path d="M35.25 24C36.4926 24 37.5 22.9926 37.5 21.75C37.5 20.5074 36.4926 19.5 35.25 19.5C34.0074 19.5 33 20.5074 33 21.75C33 22.9926 34.0074 24 35.25 24Z" fill="#C4C4C4"/>
<path d="M27.75 31.5C28.9926 31.5 30 30.4926 30 29.25C30 28.0074 28.9926 27 27.75 27C26.5074 27 25.5 28.0074 25.5 29.25C25.5 30.4926 26.5074 31.5 27.75 31.5Z" fill="#C4C4C4"/>
<path d="M35.25 31.5C36.4926 31.5 37.5 30.4926 37.5 29.25C37.5 28.0074 36.4926 27 35.25 27C34.0074 27 33 28.0074 33 29.25C33 30.4926 34.0074 31.5 35.25 31.5Z" fill="#C4C4C4"/>
<path d="M12.75 31.5C13.9926 31.5 15 30.4926 15 29.25C15 28.0074 13.9926 27 12.75 27C11.5074 27 10.5 28.0074 10.5 29.25C10.5 30.4926 11.5074 31.5 12.75 31.5Z" fill="#C4C4C4"/>
<path d="M20.25 31.5C21.4926 31.5 22.5 30.4926 22.5 29.25C22.5 28.0074 21.4926 27 20.25 27C19.0074 27 18 28.0074 18 29.25C18 30.4926 19.0074 31.5 20.25 31.5Z" fill="#C4C4C4"/>
<path d="M12.75 39C13.9926 39 15 37.9926 15 36.75C15 35.5074 13.9926 34.5 12.75 34.5C11.5074 34.5 10.5 35.5074 10.5 36.75C10.5 37.9926 11.5074 39 12.75 39Z" fill="#C4C4C4"/>
<path d="M20.25 39C21.4926 39 22.5 37.9926 22.5 36.75C22.5 35.5074 21.4926 34.5 20.25 34.5C19.0074 34.5 18 35.5074 18 36.75C18 37.9926 19.0074 39 20.25 39Z" fill="#C4C4C4"/>
<path d="M27.75 39C28.9926 39 30 37.9926 30 36.75C30 35.5074 28.9926 34.5 27.75 34.5C26.5074 34.5 25.5 35.5074 25.5 36.75C25.5 37.9926 26.5074 39 27.75 39Z" fill="#C4C4C4"/>
<path d="M36 4.5V7.5M12 4.5V7.5V4.5Z" stroke="#C4C4C4" stroke-linecap="round" stroke-linejoin="round"/>
<path d="M43.5 15H4.5" stroke="#C4C4C4" stroke-linejoin="round"/>
</svg>
