<svg width="100" height="100" viewBox="0 0 100 100" fill="none" xmlns="http://www.w3.org/2000/svg">
<path opacity="0.2" d="M50 100C77.6142 100 100 77.6142 100 50C100 22.3858 77.6142 0 50 0C22.3858 0 0 22.3858 0 50C0 77.6142 22.3858 100 50 100Z" fill="#263238"/>
<path d="M50 96.0763C75.4472 96.0763 96.0763 75.4472 96.0763 50C96.0763 24.5527 75.4472 3.92368 50 3.92368C24.5527 3.92368 3.92368 24.5527 3.92368 50C3.92368 75.4472 24.5527 96.0763 50 96.0763Z" fill="white"/>
<g opacity="0.2">
<path opacity="0.2" d="M50 51.5074C49.799 51.5086 49.5998 51.4694 49.4143 51.3921C49.2288 51.3148 49.0607 51.201 48.9201 51.0574L19.9379 21.2923C19.6732 21.0033 19.5316 20.6225 19.5429 20.2308C19.5542 19.8391 19.7176 19.4672 19.9985 19.1939C20.2793 18.9206 20.6556 18.7675 21.0475 18.7669C21.4394 18.7664 21.8161 18.9185 22.0977 19.191L51.0844 48.9336C51.2916 49.1459 51.4316 49.4146 51.4868 49.7061C51.542 49.9976 51.5099 50.299 51.3946 50.5723C51.2793 50.8457 51.0859 51.0789 50.8386 51.2429C50.5913 51.4068 50.3012 51.4941 50.0045 51.4939L50 51.5074Z" fill="#263238"/>
</g>
<path opacity="0.2" d="M37.0005 60.2052C36.6762 60.2067 36.3601 60.1036 36.099 59.9112C35.838 59.7187 35.6459 59.4472 35.5514 59.137C35.457 58.8267 35.4651 58.4943 35.5745 58.189C35.684 57.8837 35.889 57.6219 36.1591 57.4424L49.1631 48.7446C49.4954 48.5341 49.8969 48.462 50.2818 48.5435C50.6667 48.625 51.0044 48.8538 51.2229 49.181C51.4414 49.5081 51.5234 49.9078 51.4512 50.2945C51.3791 50.6813 51.1587 51.0245 50.8369 51.2509L37.8375 59.9487C37.5899 60.1148 37.2987 60.2041 37.0005 60.2052Z" fill="#263238"/>
<path d="M51.8673 50C51.8682 49.6305 51.7595 49.269 51.5548 48.9613C51.3502 48.6536 51.0589 48.4136 50.7177 48.2716C50.3766 48.1296 50.001 48.0919 49.6385 48.1635C49.2759 48.235 48.9428 48.4125 48.6812 48.6735C48.4196 48.9345 48.2413 49.2672 48.1689 49.6295C48.0965 49.9919 48.1332 50.3676 48.2744 50.7091C48.4156 51.0505 48.6549 51.3424 48.9621 51.5478C49.2693 51.7532 49.6305 51.8628 50 51.8628C50.4945 51.8628 50.9688 51.6667 51.3188 51.3175C51.6689 50.9683 51.8662 50.4945 51.8673 50Z" fill="#263238" stroke="#263238" stroke-miterlimit="10" stroke-linecap="round"/>
<path d="M50.036 8.04535V14.2729" stroke="#263238" stroke-width="2" stroke-miterlimit="10" stroke-linecap="round"/>
<path d="M50.036 85.2412V91.4687" stroke="#263238" stroke-width="2" stroke-miterlimit="10" stroke-linecap="round"/>
<path d="M91.7477 49.757H85.5157" stroke="#263238" stroke-width="2" stroke-miterlimit="10" stroke-linecap="round"/>
<path d="M14.5518 49.757H8.32434" stroke="#263238" stroke-width="2" stroke-miterlimit="10" stroke-linecap="round"/>
<path d="M71.9087 14.2414L68.642 19.5464" stroke="#263238" stroke-width="2" stroke-miterlimit="10" stroke-linecap="round"/>
<path d="M31.4255 79.9676L28.1588 85.2727" stroke="#263238" stroke-width="2" stroke-miterlimit="10" stroke-linecap="round"/>
<path d="M86.7306 29.9271L81.25 32.8879" stroke="#263238" stroke-width="2" stroke-miterlimit="10" stroke-linecap="round"/>
<path d="M18.8175 66.6262L13.3369 69.5869" stroke="#263238" stroke-width="2" stroke-miterlimit="10" stroke-linecap="round"/>
<path d="M85.5517 71.6343L80.2466 68.363" stroke="#263238" stroke-width="2" stroke-miterlimit="10" stroke-linecap="round"/>
<path d="M19.8254 31.151L14.5204 27.8843" stroke="#263238" stroke-width="2" stroke-miterlimit="10" stroke-linecap="round"/>
<path d="M69.8659 86.4561L66.9052 80.971" stroke="#263238" stroke-width="2" stroke-miterlimit="10" stroke-linecap="round"/>
<path d="M33.1668 18.543L30.2061 13.0625" stroke="#263238" stroke-width="2" stroke-miterlimit="10" stroke-linecap="round"/>
</svg>
