<svg width="48" height="48" viewBox="0 0 48 48" fill="none" xmlns="http://www.w3.org/2000/svg">
<path d="M24.5896 18.0291C23.3585 17.9075 22.12 18.1694 21.0435 18.7789C19.9671 19.3884 19.1053 20.3158 18.5763 21.434C18.0472 22.5522 17.8767 23.8065 18.0881 25.0254C18.2995 26.2442 18.8825 27.3679 19.7572 28.2427C20.6319 29.1174 21.7556 29.7003 22.9745 29.9117C24.1933 30.1232 25.4477 29.9527 26.5659 29.4236C27.6841 28.8946 28.6115 28.0328 29.221 26.9564C29.8305 25.8799 30.0924 24.6414 29.9708 23.4103C29.8322 22.0303 29.2207 20.7406 28.24 19.7599C27.2592 18.7792 25.9696 18.1677 24.5896 18.0291V18.0291ZM39.0364 24C39.0326 24.6522 38.9847 25.3034 38.893 25.9491L43.1314 29.2734C43.316 29.4264 43.4403 29.6399 43.4824 29.8759C43.5245 30.1119 43.4815 30.3552 43.3611 30.5625L39.3514 37.5C39.2297 37.7053 39.0393 37.8611 38.814 37.9398C38.5886 38.0185 38.3427 38.0152 38.1196 37.9303L33.9102 36.2353C33.6781 36.1429 33.4266 36.1095 33.1784 36.1381C32.9302 36.1668 32.693 36.2565 32.488 36.3994C31.8456 36.8418 31.1705 37.2348 30.4686 37.575C30.248 37.6822 30.0571 37.8422 29.9129 38.0407C29.7687 38.2392 29.6755 38.4701 29.6417 38.7131L29.0108 43.2028C28.9694 43.4399 28.8469 43.6553 28.6642 43.8121C28.4816 43.9689 28.2502 44.0574 28.0096 44.0625H19.9902C19.7535 44.0584 19.5253 43.9738 19.3431 43.8227C19.1609 43.6715 19.0357 43.4628 18.988 43.2309L18.358 38.7478C18.3226 38.5021 18.2271 38.269 18.0799 38.0691C17.9327 37.8693 17.7384 37.7089 17.5142 37.6022C16.8132 37.2638 16.1404 36.8697 15.5024 36.4237C15.2981 36.2816 15.0616 36.1925 14.8143 36.1646C14.5671 36.1366 14.3167 36.1705 14.0858 36.2634L9.87737 37.9575C9.65435 38.0424 9.40851 38.0459 9.18316 37.9674C8.95781 37.8888 8.76741 37.7333 8.64549 37.5281L4.63581 30.5906C4.51526 30.3834 4.47218 30.14 4.51424 29.904C4.5563 29.6679 4.68077 29.4544 4.86549 29.3016L8.44768 26.4891C8.64393 26.3333 8.79817 26.1309 8.8964 25.9004C8.99463 25.6699 9.03374 25.4185 9.01018 25.1691C8.97643 24.7781 8.95581 24.3881 8.95581 23.9972C8.95581 23.6063 8.97549 23.2219 9.01018 22.8394C9.03117 22.5914 8.99014 22.3422 8.8908 22.114C8.79146 21.8859 8.63693 21.686 8.44112 21.5325L4.86081 18.72C4.67908 18.5663 4.55723 18.3536 4.51661 18.1191C4.47598 17.8846 4.51918 17.6433 4.63862 17.4375L8.64831 10.5C8.77007 10.2947 8.96041 10.1389 9.18577 10.0602C9.41114 9.98149 9.65705 9.98484 9.88018 10.0697L14.0896 11.7647C14.3217 11.8571 14.5731 11.8905 14.8213 11.8619C15.0695 11.8332 15.3068 11.7435 15.5117 11.6006C16.1542 11.1582 16.8292 10.7652 17.5311 10.425C17.7518 10.3177 17.9426 10.1578 18.0869 9.95932C18.2311 9.76083 18.3242 9.52988 18.358 9.28687L18.9889 4.79719C19.0304 4.56008 19.1529 4.34472 19.3355 4.18791C19.5181 4.03111 19.7495 3.9426 19.9902 3.9375H28.0096C28.2462 3.94159 28.4745 4.02619 28.6566 4.17734C28.8388 4.3285 28.9641 4.5372 29.0117 4.76906L29.6417 9.25219C29.6771 9.49787 29.7727 9.73101 29.9199 9.93088C30.0671 10.1307 30.2614 10.2911 30.4855 10.3978C31.1865 10.7362 31.8593 11.1303 32.4974 11.5763C32.7017 11.7184 32.9381 11.8075 33.1854 11.8354C33.4327 11.8634 33.683 11.8295 33.9139 11.7366L38.1224 10.0425C38.3454 9.95757 38.5912 9.95407 38.8166 10.0326C39.0419 10.1112 39.2323 10.2667 39.3542 10.4719L43.3639 17.4094C43.4845 17.6166 43.5276 17.86 43.4855 18.096C43.4434 18.3321 43.319 18.5456 43.1342 18.6984L39.5521 21.5109C39.355 21.6662 39.1998 21.8683 39.1007 22.0989C39.0017 22.3294 38.9618 22.5811 38.9849 22.8309C39.0158 23.2191 39.0364 23.6091 39.0364 24Z" stroke="#C4C4C4" stroke-linecap="round" stroke-linejoin="round"/>
</svg>
